GRF
version=1
nRows=30
nColumns=19
inDegrees=no
endheader
time	left_ground_force_vx	left_ground_force_vy	left_ground_force_vz	left_ground_force_px	left_ground_force_py	left_ground_force_pz	left_ground_torque_x	left_ground_torque_y	left_ground_torque_z	right_ground_force_vx	right_ground_force_vy	right_ground_force_vz	right_ground_force_px	right_ground_force_py	right_ground_force_pz	right_ground_torque_x	right_ground_torque_y	right_ground_torque_z
      1.82000000	      0.00031575	      0.00098229	      0.00004484	     -0.16665098	      0.00000000	     -0.38744548	      0.00000000	      0.00000303	      0.00000000	     -9.75217769	    328.41511412	    -26.37938186	      0.34341615	      0.00000000	     -0.17346391	      0.00000000	      1.41862233	      0.00000000
      1.83000000	      0.00007263	      0.00022496	      0.00001019	     -0.16665107	      0.00000000	     -0.38744535	      0.00000000	      0.00000070	      0.00000000	     -8.98450110	    333.16885467	    -27.21577764	      0.34753663	      0.00000000	     -0.17112157	      0.00000000	      1.40978274	      0.00000000
      1.84000000	      0.00001520	      0.00004691	      0.00000211	     -0.16665110	      0.00000000	     -0.38744532	      0.00000000	      0.00000014	      0.00000000	     -8.05423704	    338.34114276	    -28.24606839	      0.35144281	      0.00000000	     -0.16884858	      0.00000000	      1.39134149	      0.00000000
      1.85000000	      0.00000289	      0.00000890	      0.00000040	     -0.16665110	      0.00000000	     -0.38744531	      0.00000000	      0.00000003	      0.00000000	     -6.92399570	    343.62230379	    -29.37498589	      0.35513689	      0.00000000	     -0.16669157	      0.00000000	      1.36679919	      0.00000000
      1.86000000	      0.00000050	      0.00000154	      0.00000007	     -0.16665110	      0.00000000	     -0.38744531	      0.00000000	      0.00000000	      0.00000000	     -5.60009265	    348.77828575	    -30.49951295	      0.35863145	      0.00000000	     -0.16469692	      0.00000000	      1.34160386	      0.00000000
      1.87000000	      0.00000008	      0.00000024	      0.00000001	     -0.16665110	      0.00000000	     -0.38744531	      0.00000000	      0.00000000	      0.00000000	     -4.11749779	    353.65164103	    -31.53100967	      0.36194473	      0.00000000	     -0.16290218	      0.00000000	      1.32141204	      0.00000000
      1.88000000	      0.00000001	      0.00000003	      0.00000000	     -0.16665110	      0.00000000	     -0.38744531	      0.00000000	      0.00000000	      0.00000000	     -2.52053185	    358.14960875	    -32.40884071	      0.36509778	      0.00000000	     -0.16132933	      0.00000000	      1.31060455	      0.00000000
      1.89000000	      0.00000000	      0.00000000	      0.00000000	     -0.16665110	      0.00000000	     -0.38744531	      0.00000000	      0.00000000	      0.00000000	     -0.84618187	    362.23067942	    -33.10539053	      0.36811288	      0.00000000	     -0.15998287	      0.00000000	      1.31160314	      0.00000000
      1.90000000	      0.00000000	      0.00000000	      0.00000000	     -0.16665110	      0.00000000	     -0.38744531	      0.00000000	      0.00000000	      0.00000000	      0.88586485	    365.89849081	    -33.62402053	      0.37101121	      0.00000000	     -0.15885371	      0.00000000	      1.32495453	      0.00000000
      1.91000000	      0.00000000	      0.00000000	      0.00000000	     -0.16665110	      0.00000000	     -0.38744531	      0.00000000	      0.00000000	      0.00000000	      2.67577567	    369.20322151	    -33.99166311	      0.37380884	      0.00000000	     -0.15792700	      0.00000000	      1.34972765	      0.00000000
      1.92000000	      0.00000000	      0.00000000	      0.00000000	     -0.16665110	      0.00000000	     -0.38744531	      0.00000000	      0.00000000	      0.00000000	      4.54009103	    372.24185579	    -34.24741892	      0.37651259	      0.00000000	     -0.15719022	      0.00000000	      1.38386299	      0.00000000
      1.93000000	      0.00000000	      0.00000000	      0.00000000	     -0.16665110	      0.00000000	     -0.38744531	      0.00000000	      0.00000000	      0.00000000	      6.50412760	    375.14627905	    -34.42869640	      0.37911850	      0.00000000	     -0.15663851	      0.00000000	      1.42454537	      0.00000000
      1.94000000	      0.00000000	      0.00000000	      0.00000000	     -0.16665110	      0.00000000	     -0.38744531	      0.00000000	      0.00000000	      0.00000000	      8.59227489	    378.05419199	    -34.55739090	      0.38161437	      0.00000000	     -0.15627622	      0.00000000	      1.46890485	      0.00000000
      1.95000000	      0.00000000	      0.00000000	      0.00000000	     -0.16665110	      0.00000000	     -0.38744531	      0.00000000	      0.00000000	      0.00000000	     10.81858265	    381.06836326	    -34.62975111	      0.38398565	      0.00000000	     -0.15611504	      0.00000000	      1.51506054	      0.00000000
      1.96000000	      0.00000000	      0.00000000	      0.00000000	     -0.16665110	      0.00000000	     -0.38744531	      0.00000000	      0.00000000	      0.00000000	     13.18034426	    384.21778010	    -34.61371866	      0.38622195	      0.00000000	     -0.15616906	      0.00000000	      1.56297186	      0.00000000
      1.97000000	      0.00000000	      0.00000000	      0.00000000	     -0.16665110	      0.00000000	     -0.38744531	      0.00000000	      0.00000000	      0.00000000	     15.65671203	    387.43472514	    -34.45565829	      0.38832188	      0.00000000	     -0.15644672	      0.00000000	      1.61434930	      0.00000000
      1.98000000	      0.00000000	      0.00000000	      0.00000000	     -0.16665110	      0.00000000	     -0.38744531	      0.00000000	      0.00000000	      0.00000000	     18.21258165	    390.55459901	    -34.09480660	      0.39029522	      0.00000000	     -0.15694074	      0.00000000	      1.67131953	      0.00000000
      1.99000000	      0.00000000	      0.00000000	      0.00000000	     -0.16665110	      0.00000000	     -0.38744531	      0.00000000	      0.00000000	      0.00000000	     20.80604787	    393.33467641	    -33.48031715	      0.39216262	      0.00000000	     -0.15761928	      0.00000000	      1.73434675	      0.00000000
      2.00000000	      0.00000000	      0.00000000	      0.00000000	     -0.16665110	      0.00000000	     -0.38744531	      0.00000000	      0.00000000	      0.00000000	     23.39682833	    395.47959108	    -32.58469376	      0.39395307	      0.00000000	     -0.15842301	      0.00000000	      1.80045345	      0.00000000
      2.01000000	      0.00000000	      0.00000000	      0.00000000	     -0.16665110	      0.00000000	     -0.38744531	      0.00000000	      0.00000000	      0.00000000	     25.95328926	    396.65936776	    -31.40942910	      0.39569891	      0.00000000	     -0.15927172	      0.00000000	      1.86265833	      0.00000000
      2.02000000	      0.00000000	      0.00000000	      0.00000000	     -0.16665110	      0.00000000	     -0.38744531	      0.00000000	      0.00000000	      0.00000000	     28.45615377	    396.51130542	    -29.98238178	      0.39742908	      0.00000000	     -0.16007969	      0.00000000	      1.91089271	      0.00000000
      2.03000000	      0.00000000	      0.00000000	      0.00000000	     -0.16665110	      0.00000000	     -0.38744531	      0.00000000	      0.00000000	      0.00000000	     30.89694455	    394.62746972	    -28.34948375	      0.39916242	      0.00000000	     -0.16077392	      0.00000000	      1.93394569	      0.00000000
      2.04000000	      0.00000000	      0.00000000	      0.00000000	     -0.16665110	      0.00000000	     -0.38744531	      0.00000000	      0.00000000	      0.00000000	     33.26926528	    390.53979638	    -26.56437522	      0.40090444	      0.00000000	     -0.16130757	      0.00000000	      1.92162778	      0.00000000
      2.05000000	      0.00000000	      0.00000000	      0.00000000	     -0.16665110	      0.00000000	     -0.38744531	      0.00000000	      0.00000000	      0.00000000	     35.55240224	    383.71941315	    -24.67883969	      0.40265017	      0.00000000	     -0.16166281	      0.00000000	      1.86643450	      0.00000000
      2.06000000	      0.00000000	      0.00000000	      0.00000000	     -0.16665110	      0.00000000	     -0.38744531	      0.00000000	      0.00000000	      0.00000000	     37.68988195	    373.60333324	    -22.73571279	      0.40439356	      0.00000000	     -0.16184251	      0.00000000	      1.76439463	      0.00000000
      2.07000000	      0.00000000	      0.00000000	      0.00000000	     -0.16665110	      0.00000000	     -0.38744531	      0.00000000	      0.00000000	      0.00000000	     39.56947623	    359.65244696	    -20.76515797	      0.40614024	      0.00000000	     -0.16185475	      0.00000000	      1.61526963	      0.00000000
      2.08000000	      0.00000000	      0.00000000	      0.00000000	     -0.16665110	      0.00000000	     -0.38744531	      0.00000000	     -0.00000000	     -0.00000000	     41.01374799	    341.43496533	    -18.78477206	      0.40791714	      0.00000000	     -0.16169703	      0.00000000	      1.42258259	      0.00000000
      2.09000000	      0.00000000	      0.00000000	      0.00000000	     -0.16665110	      0.00000000	     -0.38744531	      0.00000000	     -0.00000000	     -0.00000000	     41.78992366	    318.72324101	    -16.80331692	      0.40977178	      0.00000000	     -0.16134648	      0.00000000	      1.19389045	      0.00000000
      2.10000000	      0.00000000	      0.00000000	      0.00000000	     -0.16665110	      0.00000000	     -0.38744531	      0.00000000	     -0.00000000	     -0.00000000	     41.64397107	    291.58957455	    -14.82678798	      0.41175643	      0.00000000	     -0.16076117	      0.00000000	      0.94124443	      0.00000000
      2.11000000	      0.00000000	      0.00000000	      0.00000000	     -0.16665110	      0.00000000	     -0.38744531	      0.00000000	     -0.00000000	     -0.00000000	     40.35662112	    260.48580106	    -12.86466865	      0.41389930	      0.00000000	     -0.15989361	      0.00000000	      0.68119086	      0.00000000
